<svg width="25" height="25" viewBox="0 0 25 25" fill="none" xmlns="http://www.w3.org/2000/svg">
    <g clip-path="url(#clip0)">
        <path d="M24.6141 2.48355C24.3086 2.1101 23.8512 1.9043 23.3261 1.9043C23.0404 1.9043 22.7381 1.96457 22.4271 2.0832L1.26499 10.1614C0.141946 10.5899 -0.00930675 11.2331 0.000420707 11.5785C0.0101481 11.9237 0.19764 12.5574 1.34319 12.9217C1.35006 12.9239 1.35692 12.9259 1.36379 12.9279L4.33161 13.7771L18.7854 6.39287C19.1456 6.20859 19.5869 6.35162 19.771 6.71194C19.9156 6.995 19.8576 7.32762 19.6516 7.54662L19.6521 7.54718L11.6157 16.0861L11.3865 17.0152L14.2562 19.3261L18.2331 22.5284C18.2365 22.5311 18.2399 22.5339 18.2436 22.5366C18.6811 22.8761 19.1591 23.0554 19.6258 23.0556C20.5379 23.0556 21.2641 22.3806 21.4756 21.3361L24.9429 4.21504C25.0819 3.52802 24.9652 2.9129 24.6141 2.48355Z"
              fill="white"/>
        <path d="M10.2401 15.5489C10.2692 15.4305 10.328 15.3176 10.4175 15.2224L15.6908 9.61914L5.90546 14.6183L8.12731 20.9726C8.254 21.3346 8.44244 21.6429 8.6755 21.8841L10.2397 15.5487L10.2401 15.5489Z"
              fill="white"/>
        <path d="M10.0391 22.4719C10.5672 22.4675 11.0862 22.2447 11.5409 21.826L13.1666 20.3292L10.999 18.584L10.0391 22.4719Z"
              fill="white"/>
    </g>
    <defs>
        <clipPath id="clip0">
            <rect width="25" height="25" fill="white"/>
        </clipPath>
    </defs>
</svg>
